<?xml version="1.0" encoding="utf-8"?>
<!-- Generator: Adobe Illustrator 19.2.1, SVG Export Plug-In . SVG Version: 6.00 Build 0)  -->
<svg version="1.1" id="Layer_1" xmlns="http://www.w3.org/2000/svg" xmlns:xlink="http://www.w3.org/1999/xlink" x="0px" y="0px"
	 viewBox="0 0 416.9 148.8" style="enable-background:new 0 0 416.9 148.8;" xml:space="preserve">
<style type="text/css">
	.st0{clip-path:url(#SVGID_2_);fill:#5D2C85;}
	.st1{clip-path:url(#SVGID_2_);}
	.st2{fill:#5E0D8B;}
	.st3{font-family:'HelveticaNeue-Bold';}
	.st4{font-size:4.3856px;}
	.st5{clip-path:url(#SVGID_2_);fill:#E8417A;}
	.st6{clip-path:url(#SVGID_2_);fill:#E7417A;}
</style>
<g>
	<defs>
		<rect id="SVGID_1_" width="416.9" height="148.8"/>
	</defs>
	<clipPath id="SVGID_2_">
		<use xlink:href="#SVGID_1_"  style="overflow:visible;"/>
	</clipPath>
	<path class="st0" d="M25.8,107.1c0.7,2.2,4.8,11.6,9.8,11.1c4.9-0.5,5.9-12.4,6.2-14.8c0.3-2.4,0.6-4.9,0.8-7.5
		c0.2-2.7,0.2-5.5,0.2-8.4c0-2.9-0.1-5.8-0.2-8.7c-0.4-10.3,0.6-10.8-1-23.6c-0.2-2.1-0.3-3.8-0.2-5.3c0.1-1.5,0.3-2.7,0.8-3.7
		c0.4-1,1-1.7,1.8-2.3c0.8-0.6,1.7-1,2.8-1.3c1.1-0.3,2-0.4,2.7-0.4c0.8,0.1,1.4,0.2,1.9,0.6c0.5,0.3,1,0.8,1.3,1.3
		c0.3,0.6,0.6,1.2,0.8,2c0.1,0.3,0.3,1.3,0.6,3.3c0.3,1.9,0.7,4.4,1.2,7.4c0.5,3,0.9,6.8,1.7,10.8c0.7,4,1.5,7.9,2.4,11.7
		c0.8,3.9,1.7,7.4,2.6,10.5c0.9,3.2,1.8,6.1,2.8,8.7c0.9,2.6,1.9,4.7,2.8,6.4c1,1.7,1.9,3,2.9,3.7c1,0.8,2,1,3,0.7
		c1.8-0.5,3.2-1.9,4.1-4.1c1-2.2,1.6-5,2-8.4c0.4-3.4,0.5-7.2,0.3-11.4c-0.2-4.2-0.5-8.6-1-13.2c-0.5-4.5-1.1-9.1-1.8-13.6
		c-0.7-4.5-1.4-8.8-2.2-12.8c-0.8-4-1.5-7.6-2.1-10.8c-0.7-3.2-1.2-5.7-1.6-7.5c-0.4-1.9-0.6-3.4-0.5-4.7c0.1-1.2,0.4-2.3,0.9-3.1
		c0.5-0.8,1.2-1.4,2-1.9c0.8-0.4,1.7-0.8,2.6-1c0.7-0.2,1.4-0.3,2-0.2c0.6,0,1.2,0.2,1.8,0.6c0.6,0.4,1.1,0.9,1.5,1.7
		c0.5,0.8,0.9,1.8,1.2,3c1,3.5,1.9,7.3,2.7,11.5c0.8,4.2,1.5,8.3,2.1,12.6c0.6,4.2,1.2,8.3,1.7,12.4c0.5,4,0.9,7.7,1.3,10.9
		c1.1,9.8,0.4,23.3-2.3,33.2c-0.9,3.1-1.9,5.9-3.2,8.3c-1.3,2.4-2.8,4.4-4.4,6c-1.7,1.6-3.6,2.7-5.7,3.3c-2.7,0.8-5.2,0.5-7.6-0.8
		c-2.4-1.3-4.6-3.3-6.6-6.1c-2-2.8-3.9-6.2-5.6-10.2c-1.7-4-3.2-8.4-4.6-13.1c-0.5-1.7-0.9-3.4-1.2-4.9c-0.3-1.6-0.6-2.9-0.8-4.2
		c1.3,8.5,2,15.7,2,21.7c0,6-0.5,10.9-1.6,14.9c-1.1,3.9-2.8,7-5.1,9.2c-6,5.8-19.4,3.9-27-12.7c-4.8-10.3-4.6-21.5-5.2-27.9
		C9.1,61.5,5.3,55.2,1.2,51.8c-2.9-2.4-0.4-18.6,7.6-11.2c7,6.4,10.9,18,13.8,40.8C23.6,89.1,22.9,98.2,25.8,107.1"/>
	<path class="st0" d="M274.9,52.8c-1.3-1.3-2.9-2.3-4.6-3.1c-1.7-0.8-3.6-1.2-5.4-1.3c-2.8-0.2-5.3,0.1-7.5,0.8
		c-2.2,0.7-4.1,1.7-5.6,3c-1.6,1.3-2.8,2.8-3.7,4.5c-0.9,1.7-1.3,3.5-1.5,5.3c-0.1,2,0.1,3.8,0.8,5.4c0.6,1.5,1.4,3,2.5,4.2
		c1,1.2,2.2,2.3,3.5,3.4c1.2,1,2.5,1.9,3.7,2.7c1.2,0.8,2.4,1.7,3.6,2.5c1.1,0.7,2,1.5,2.8,2.3c0.7,0.7,1.3,1.5,1.7,2.3
		c0.3,0.7,0.5,1.4,0.4,2.2c-0.1,0.9-0.3,1.7-0.8,2.4c-0.5,0.8-1.2,1.4-2,1.9c-0.9,0.5-1.8,0.9-2.9,1.1c-1,0.2-2,0.3-3,0.3l-0.3,0
		c-0.9-0.1-1.8-0.2-2.6-0.5c-0.7-0.3-1.4-0.6-1.9-1c-0.5-0.4-0.9-0.9-1.1-1.5c-0.3-0.6-0.4-1.3-0.3-2.2c0-0.5,0.1-0.9,0.2-1.3
		c0.1-0.4,0.2-0.9,0.3-1.2l0.3-1.1c0.1-0.5,0.2-0.9,0.2-1.4c0.1-1.7-0.5-2.7-1-3.3c-0.7-0.8-1.7-1.3-2.8-1.3l-0.1,0
		c-0.8,0-1.7,0.2-2.6,0.6c-2.2,1.1-6.9,5-8.8,6.3c-1.9,1.3-3.8,2.5-5.7,3.4c-2,0.9-3.8,1.3-5.6,1.3c-0.6,0-1.1-0.1-1.6-0.2
		c-0.5-0.2-0.9-0.4-1.4-0.8c-0.4-0.4-1.6-1.8-2.1-2.9c6.5-4.4,13.6-10.7,16.1-17.2c0.9-2.3,1.4-4.7,1.4-7c0-2.2-0.3-4.1-0.8-5.8
		c-0.6-1.7-1.4-3.2-2.4-4.5c-1-1.2-2.3-2.2-3.7-2.9c-1.4-0.7-2.9-1-4.6-1.1c-2,0-3.9,0.4-5.5,1.4c-1.7,0.9-3.2,2.2-4.5,3.7
		c-1.3,1.6-2.5,3.4-3.5,5.4c-1,2.1-1.9,4.2-2.5,6.5c-0.7,2.3-1.2,4.6-1.5,6.9c-0.3,2.4-0.5,4.6-0.5,6.7c0,1.7,0,5.1,0.2,6.6
		c-2.4,2.2-4.4,3.9-8.3,4c-5.8,0.1-3.8-13.1-4.1-26.4c17.6-13.4,31.5-61.5,9.9-62.1c-1.8-0.1-3.6,0.8-5.2,2.1
		c-11,9.2-14.7,38.7-15.2,52.9c-2.8,1.5-7,2-10.6,1.3c-0.3-0.7-0.7-1.4-1-2c-0.9-1.7-2.4-3.1-4.1-3.8c-0.5-0.3-1-0.5-1.5-0.6
		c-2.3-0.2-4.9,0.2-6.6,2.2c-0.4,0.5-0.8,1.1-1.1,1.6c-6.3-3.7-11.2,4.2-14,8.7c-2.7,4.6-4.1,12.3-3.4,21.1c0.1,1.3,0.3,2.4,0.4,3.4
		c-0.5,0.8-1,1.6-1.5,2.4c-0.6,0.9-1.3,1.7-2,2.4c-0.7,0.7-1.4,1.3-2.1,1.8c-0.7,0.5-1.4,0.8-2.1,0.9c-0.6,0.1-1.1-0.3-1.6-1.1
		c-0.5-0.8-0.9-2-1.1-3.5c-0.4-2.7-0.6-5.4-0.5-8c0.1-2.6,0.3-5.1,0.6-7.6c0.3-2.5,0.5-5,0.7-7.5c0.2-2.5,0-5-0.4-7.5
		c-0.2-1.3-0.5-2.3-0.9-3c-0.4-0.8-0.8-1.3-1.3-1.7c-0.5-0.4-0.9-0.6-1.4-0.7c-0.5-0.1-0.9-0.1-1.2-0.1c-1.4,0.2-2.8,1.1-4.1,2.7
		c-1.4,1.6-2.7,3.5-4,5.7c-1.3,2.3-2.5,4.7-3.6,7.2c-1.1,2.6-2.1,4.9-3,7.1l-1-0.6c0.6-2.5,1.3-5.3,2.1-8.3c0.8-3.1,1.6-6.3,2.3-9.8
		c0.8-3.4,1.5-7,2.2-10.6c0.7-3.6,1.2-7.2,1.6-10.7c0.4-3.5,0.7-6.9,0.7-10.1c0.1-3.2-0.1-6.1-0.6-8.7c-0.3-1.7-0.7-3.3-1.2-4.7
		c-0.5-1.4-1.1-2.5-1.9-3.4c-0.8-0.9-1.7-1.6-2.8-2c-1.1-0.4-2.4-0.5-4-0.3c-3,0.4-5.5,1.8-7.5,4.2c-2,2.4-3.5,5.4-4.7,9
		c-1.1,3.7-1.9,7.8-2.3,12.5c-0.4,4.7-0.6,9.5-0.5,14.6c0.1,5.1,0.3,10.1,0.8,15.3c0.5,5.1,1,10,1.5,15c0.6,5,1.1,9.5,1.7,13.5
		c0.6,4.1,1.1,7.3,1.5,9.8c0.3,1.6,0.5,3.1,0.9,4.6c0.3,1.5,0.7,2.8,1.2,3.9c0.5,1.1,1.1,2,1.7,2.6c0.7,0.6,1.5,0.9,2.4,0.7
		c0.7-0.1,1.3-0.4,1.7-0.9c0.4-0.5,0.7-1.2,1-2c0.3-0.9,0.5-1.9,0.7-3.3c0.2-1.3,0.5-2.9,0.9-4.6c0.7-3.6,1.6-7.1,2.7-10.6
		c1.1-3.4,2.1-6.6,3.2-9.4c1.1-2.8,2.1-5.1,3-7c0.9-1.9,1.6-3,2-3.5l0.9,0c-0.1,0.1-0.2,0.6-0.4,1.3c-0.2,0.8-0.4,1.7-0.6,2.9
		c-0.2,1.2-0.4,2.5-0.7,4c-0.2,1.5-0.4,3-0.5,4.6c-0.1,1.5-0.2,3.1-0.2,4.6c0,1.5,0.1,2.9,0.3,4.1c0.3,1.8,0.8,3.7,1.5,5.6
		c0.7,2,1.6,3.7,2.6,5.3c1,1.6,2.2,2.8,3.6,3.7c1.4,0.9,2.8,1.2,4.4,1c1-0.2,2.1-0.6,3.2-1.2c1.1-0.6,2.1-1.4,3.2-2.3
		c1-0.9,2.1-1.8,3-2.9c1-1.1,1.9-2.1,2.7-3.2c0.5-0.6,0.9-1.2,1.3-1.7c0.4,0.5,0.8,1.1,1.2,1.6c1.7,2,3.6,3.6,5.9,4.6
		c2.3,1,4.9,1.3,7.9,0.8c2-0.3,3.9-1,5.6-2.1c1.7-1.1,3.2-2.4,4.6-3.9c1.3-1.5,2.5-3.3,3.4-5.3c0.9-2,1.7-4,2.2-6.2
		c0.5-2.1,0.9-4.3,1-6.6c0.1-2.2,0-4.4-0.3-6.5c-0.3-2.1-1.4-6.6-2-7.9c2.8-0.1,5.7-0.5,8.1-1.4c0.7,10.3-1.7,35.8,9.4,36.1
		c5.7,0.1,11.1-3.6,16.4-7.7c1.3,3.3,4,5.2,5.9,6.5c2,1.4,4.5,2.3,7.2,2c5.5-0.7,11.7-5.4,16.2-10.3c0.2,0.9,0.4,1.8,0.8,2.6
		c0.9,2,2.1,3.8,3.7,5.2c1.6,1.4,3.4,2.5,5.4,3.2c2,0.7,4.1,1.2,6.2,1.3c0.2,0,0.4,0,0.6,0c1.3,0,2.6,0,4-0.2c1.5-0.2,3-0.6,4.4-1.1
		c1.4-0.5,2.8-1.2,4.1-2.1c1.3-0.9,2.4-1.9,3.4-3.1c1-1.2,1.8-2.6,2.4-4.2c0.6-1.6,1-3.3,1.1-5.1c0.1-2.1-0.1-4-0.7-5.7
		c-0.6-1.7-1.4-3.2-2.5-4.5c-1-1.3-2.2-2.5-3.5-3.5c-1.2-1-2.5-1.9-3.8-2.8c-1.2-0.8-2.5-1.7-3.6-2.4c-1.1-0.7-2-1.5-2.8-2.2
		c-0.7-0.7-1.3-1.4-1.7-2.1c-0.3-0.6-0.4-1.2-0.4-1.9c0-0.4,0.1-0.7,0.4-1.1c0.2-0.4,0.5-0.7,1-1.1c0.5-0.4,1.1-0.7,1.8-0.9
		c0.8-0.2,1.7-0.3,2.8-0.2c1,0.1,2,0.2,2.8,0.5c0.8,0.2,1.4,0.5,1.8,0.8c0.4,0.3,0.7,0.6,0.9,1c0.2,0.3,0.2,0.7,0.2,1.2
		c0,0.4-0.2,0.9-0.3,1.4c-0.4,1.4-0.1,3,0.9,4.3c1,1.3,2.3,2.1,3.8,2.1c1.1,0,3.2-0.3,4.7-3.1c0.8-1.4,0.9-2.8,0.9-4l0-0.1
		c0.1-2.1-0.2-4.1-1-5.9C277.3,55.7,276.3,54.1,274.9,52.8 M113.1,29.5c-0.1,3.8-0.6,8.4-1.4,14c-0.2,1.6-0.6,3.6-1,6
		c-0.4,2.4-0.8,4.9-1.3,7.5c-0.5,2.7-0.9,5.3-1.4,8c-0.5,2.7-0.9,5-1.3,7.5c-0.4-4.3-0.8-8.1-1-12.3c-0.1-1.8-0.2-3.7-0.3-5.7
		c-0.1-2-0.1-4-0.1-6.1c0-2.1,0-4.2,0.1-6.3c0.1-2.1,0.2-4.2,0.3-6.1c1-5.9,2-10.4,3-13.6c1-3.2,1.8-4.8,2.6-4.9
		c0.6-0.1,1.1,1.2,1.6,3.8C113.2,23,113.3,25.8,113.1,29.5 M169,79.7c-0.3,2.4-0.5,4.6-1,6.6c-0.5,2-1.2,3.8-2.1,5.2
		c-0.9,1.4-1.9,2.2-3.1,2.4c-1.3,0.2-2.5,0.1-3.5-0.3c-1-0.4-1.9-1.1-2.6-2c-0.7-0.9-1.3-2-1.8-3.3c-0.5-1.3-0.8-2.7-1-4.2
		c-0.3-2.2-0.4-4.5-0.2-7c0.2-2.5,0.6-4.8,1.3-6.9c0.6-2,2.2-6.3,4-7.3c1.1,3.8,3.7,6.3,9.2,4.7C169.2,70.9,169.5,75.6,169,79.7
		 M193.6,51c-0.6-6.3,3.1-29.6,9.9-36c2.6-2.5,3.9-1.8,4.2,1.6C207.3,28.2,199.2,44.6,193.6,51 M223.6,58.6c3.4-3.2,7.2-1.8,5.6,5.3
		c-0.9,3.7-6.8,10.3-11,12.9C217,65.7,221.4,60.6,223.6,58.6"/>
	<path class="st0" d="M412.3,112.6c-4,2.1-8.7,3.6-14.1,3.9c-6.4,0.4-9-2.7-8.9-8.4c11.5-0.7,22.3-10.2,24.2-17
		c1.6-5.6,0.1-11.3-3.9-14.8c-1.2-1-2.5-1.8-4.1-2.2c-2-0.6-3.9-0.6-5.7-0.2c-1.9,0.4-3.6,1.2-5.4,2.4c-1.7,1.1-3.3,2.6-4.9,4.3
		c-1.5,1.7-2.9,3.6-4.2,5.5c-2.9,4.5-4.6,10.3-5.4,15.8c-2.5,0.6-4.5,1.4-5.2,2.5c-1,1.4,0.9,2.8,4.7,3.4c-0.1,1.8,0,3.6,0.1,5.3
		c0.5,6.4,4.3,11.3,9.7,12.9c4.3,1.2,6.7,0.9,10.6,0.1c3.3-0.7,7.8-2.8,10.4-4.4C417.2,117.1,414.3,111.6,412.3,112.6 M403,85.8
		c2.3,0.7,1.7,4.4,0.8,6.3c-1.4,3-8,7.6-13.5,7.9C393.4,89.5,397.5,84.3,403,85.8"/>
	<path class="st0" d="M377.3,61.5c-4.5-4.6-11.9-5.7-17.1-3.9c-1.2,0.4-2.6,1.1-4,2.2c-0.5-2.3-1.2-4.5-2.2-6.3
		c-2.4-4.5-6.2-7.1-10.6-7.1c-7.2,0-15,4.8-18.7,13.3c-2.8,1.1-5.2,1.8-9.2,1.8c-0.2-0.8-0.6-2.9-0.8-3.5c-0.6-1.8-1.8-3.5-3.2-4.5
		c-0.4-0.4-0.9-0.7-1.4-0.8c-2.2-0.6-4.7-0.7-6.8,0.9c-0.5,0.4-1,0.9-1.4,1.4c-5.5-4.8-11.7,1.9-15.2,5.8
		c-3.5,3.9-6.3,11.2-7.3,19.8c-0.5,4.1-0.1,6.2,0.3,8.6c0.5,2.8,1.3,5.4,2.6,7.6c1.2,2.3,2.9,4.1,4.9,5.6c2,1.4,4.5,2.2,7.5,2.3
		c2,0.1,4-0.3,5.8-1c1.8-0.7,3.6-1.7,5.2-2.9c1.6-1.3,3-2.7,4.3-4.5c1.3-1.7,2.4-3.6,3.3-5.6c0.9-2,1.7-4.1,2.2-6.2
		c0.6-2.1,0.9-4.3,1-6.4c0.1-2.1-0.1-6.7-0.4-8c2.4-0.8,4.6-1.8,6.9-3.3c-0.7,3.4-1.1,7.6-1.1,11.2c0.3,14.2,7.2,25.4,17.2,34.6
		c1.4,1.3,4.1,1.6,5.2-0.3c1.4-2.5,0.6-5.9-1.3-7.6c-10.2-9.4-13.4-25.9-10.1-38.3c1.2-4.4,5.1-10.7,10.3-9.2
		c11.9,3.5,2.1,19.1,7.2,20.9c4.3,1.5,4.4-7.7,12-10.1c2.4-0.7,5.2,0.1,7.4,2.4c1.9,1.9,2.5,5.4,1.8,9.4
		c-1.3,7.2-5.3,17.3-17.2,24.5c-7.9,4.8,0.2,7.3,2.5,6.4c15.5-6.5,22.5-18.1,24.5-28.5C382.9,74.5,381.7,66.1,377.3,61.5
		 M305.9,81.9c-0.6,2.3-1.3,4.3-2.3,6.2c-0.9,1.9-1.9,3.4-3,4.6c-1.1,1.2-2.3,1.8-3.4,1.8c-1.3,0-2.4-0.4-3.3-1
		c-0.9-0.6-1.6-1.4-2.1-2.4c-0.5-1-0.9-2.2-1.1-3.5c-0.2-1.3-0.3-2.8-0.2-4.3c0.1-2.2,0.5-4.5,1.2-6.8c0.7-2.4,1.5-4.5,2.5-6.4
		c1-1.8,3.3-5.7,5.3-6.3c0.3,3.9,2.7,7.2,7.8,7.9C307.3,74.6,306.4,80.1,305.9,81.9"/>
	<g class="st1">
		<text transform="matrix(1 0 0 1.1111 410.1172 129.6896)"><tspan x="0" y="0" class="st2 st3 st4">T</tspan><tspan x="2.3" y="0" class="st2 st3 st4">M</tspan></text>
	</g>
	<polygon class="st5" points="121.9,136.8 122.8,136.8 122.8,148.5 120.3,148.5 120.3,142.2 117.3,145.9 117,145.9 114.1,142.2 
		114.1,148.5 111.5,148.5 111.5,136.8 112.5,136.8 117.2,142.3 	"/>
	<polygon class="st5" points="132.6,146.5 132.6,148.5 126.8,148.5 126.8,146.5 128.4,146.5 128.4,138.7 126.9,138.7 126.9,136.8 
		132.4,136.8 132.4,138.7 130.9,138.7 130.9,146.5 	"/>
	<polygon class="st5" points="139.1,141.8 139.1,148.5 136.6,148.5 136.6,136.8 137.4,136.8 143.9,143.4 143.9,136.8 146.4,136.8 
		146.4,148.5 145.7,148.5 	"/>
	<path class="st5" d="M155.4,136.8c3.7,0,5.7,2.8,5.7,5.8c0,3-2,5.9-5.7,5.9h-4.3v-11.7H155.4z M155.4,146.3c2.2,0,3.3-1.7,3.3-3.6
		c0-1.9-1.2-3.6-3.3-3.6h-1.8v7.2H155.4z"/>
	<polygon class="st5" points="171.8,144.3 167.6,144.3 167.6,148.5 165.1,148.5 165.1,136.8 172.3,136.8 172.3,139 167.6,139 
		167.6,142.2 171.8,142.2 	"/>
	<path class="st5" d="M176,144.6v-7.8h2.5v7.8c0,1.3,1,1.9,2.2,1.9c1.2,0,2.2-0.6,2.2-1.9v-7.8h2.5v7.8c0,2.6-2.2,4-4.6,4
		C178.2,148.7,176,147.2,176,144.6"/>
	<polygon class="st5" points="192.3,146.3 197.2,146.3 197.2,148.5 189.8,148.5 189.8,136.8 192.3,136.8 	"/>
	<polygon class="st5" points="203.2,146.3 208.1,146.3 208.1,148.5 200.7,148.5 200.7,136.8 203.2,136.8 	"/>
	<polygon class="st5" points="214.5,141.5 215.7,139.2 217.1,136.8 219.7,136.8 219.7,137.2 215.7,143.8 215.7,148.5 213.2,148.5 
		213.2,143.8 209.2,137.2 209.2,136.8 211.9,136.8 213.3,139.3 214.4,141.5 	"/>
	<path class="st5" d="M232.8,136.8c3.7,0,5.7,2.8,5.7,5.8c0,3-2,5.9-5.7,5.9h-4.3v-11.7H232.8z M232.7,146.3c2.2,0,3.3-1.7,3.3-3.6
		c0-1.9-1.2-3.6-3.3-3.6h-1.8v7.2H232.7z"/>
	<polygon class="st5" points="249.6,139 245,139 245,141.4 249.3,141.4 249.3,143.6 245,143.6 245,146.2 249.8,146.2 249.8,148.5 
		242.5,148.5 242.5,136.8 249.6,136.8 	"/>
	<polygon class="st5" points="256.4,146.3 261.3,146.3 261.3,148.5 253.9,148.5 253.9,136.8 256.4,136.8 	"/>
	<polygon class="st5" points="270,146.5 270,148.5 264.2,148.5 264.2,146.5 265.9,146.5 265.9,138.7 264.3,138.7 264.3,136.8 
		269.9,136.8 269.9,138.7 268.4,138.7 268.4,146.5 	"/>
	<path class="st5" d="M279.2,136.7c2.4,0,4.9,1.3,5.4,4.2h-2.4c-0.5-1.3-1.6-1.9-3-1.9c-2.1,0-3.5,1.5-3.5,3.7c0,2,1.4,3.7,3.4,3.7
		c1.5,0,2.6-0.7,3-2.1h2.4c-0.5,3.1-3,4.4-5.4,4.4c-3.1,0-6-2.1-6-5.9C273.2,138.8,276.1,136.6,279.2,136.7"/>
	<polygon class="st5" points="293.7,146.5 293.7,148.5 287.8,148.5 287.8,146.5 289.5,146.5 289.5,138.7 288,138.7 288,136.8 
		293.5,136.8 293.5,138.7 292,138.7 292,146.5 	"/>
	<path class="st5" d="M302.8,148.7c-3.1,0-5.9-2.1-5.9-6c0-3.9,2.9-6,6-6c3.1,0,5.9,2.1,5.9,6C308.8,146.2,306.3,148.7,302.8,148.7
		 M302.8,146.4c1.8,0,3.5-1.2,3.5-3.8c0-2.5-1.6-3.7-3.5-3.7c-1.8,0-3.5,1.3-3.5,3.7C299.3,145.2,300.9,146.4,302.8,146.4"/>
	<path class="st5" d="M312.6,144.6v-7.8h2.5v7.8c0,1.3,1,1.9,2.2,1.9c1.2,0,2.2-0.6,2.2-1.9v-7.8h2.5v7.8c0,2.6-2.2,4-4.6,4
		C314.8,148.7,312.6,147.2,312.6,144.6"/>
	<path class="st5" d="M328.2,145c0.1,1.1,1.2,1.5,2.4,1.5c1,0,2.2-0.3,2.2-1.5c0-1.3-1.4-1.5-2.6-1.5c-2.1-0.2-4.3-0.9-4.3-3.3
		c0-2.6,2.1-3.7,4.4-3.7c2.2,0,4.5,0.9,4.5,3.5h-2.3c-0.1-1-1.1-1.4-2.1-1.4c-1,0-2,0.5-2,1.4c0,1,1,1.3,2.2,1.4
		c2.5,0.2,4.6,0.8,4.6,3.5c0,2.8-2.4,3.6-4.7,3.7c-2.3,0-4.8-1.2-4.8-3.7H328.2z"/>
	<polygon class="st6" points="337.7,144.9 337.7,144.2 340.6,144.2 340.6,144.9 339.6,144.9 339.6,148.1 338.8,148.1 338.8,144.9 	
		"/>
	<polygon class="st6" points="342.2,144.2 343,146.9 343,146.9 343.8,144.2 344.9,144.2 344.9,148.1 344.2,148.1 344.2,145.3 
		344.1,145.3 343.3,148.1 342.7,148.1 341.8,145.4 341.8,145.4 341.8,148.1 341.1,148.1 341.1,144.2 	"/>
</g>
</svg>
