<?xml version="1.0" encoding="utf-8"?>
<!-- Generated by IcoMoon.io -->
<!DOCTYPE svg PUBLIC "-//W3C//DTD SVG 1.1//EN" "http://www.w3.org/Graphics/SVG/1.1/DTD/svg11.dtd">
<svg version="1.1" xmlns="http://www.w3.org/2000/svg" xmlns:xlink="http://www.w3.org/1999/xlink" width="34" height="32" viewBox="0 0 34 32">
<path d="M33.032 4.028c-1.083-1.913-3.424-4.884-9.24-3.802-4.607 0.881-7.1 7.226-7.1 7.226s-2.392-6.747-7.679-7.1c-4.607-0.277-8.107 1.511-8.913 6.622-0.428 2.719 0.378 8.057 3.298 13.747 3.399 6.596 9.215 11.279 9.215 11.279s4.456-2.442 10.096-6.319c5.715-3.928 8.636-8.258 10.046-11.254 1.46-3.172 1.712-7.855 0.277-10.398zM31.169 14.149c-1.284 3.248-3.802 7.201-9.492 11.128-5.614 3.877-8.585 5.312-8.585 5.312s-5.237-4.053-8.51-10.524c-2.593-5.086-2.996-9.718-2.14-12.362s2.719-5.136 7.301-4.834c5.287 0.327 6.899 6.093 6.899 6.093s1.838-5.312 6.471-6.168 6.269 0.957 7.654 2.769c1.36 1.813 1.712 5.338 0.403 8.585z"></path>
<path d="M12.79 11.556c0 0 2.392 2.593 3.55 3.374 1.637 1.108 4.28 1.888 4.28 1.888s-2.644 1.36-4.633 2.946c-1.611 1.284-3.248 3.122-3.248 3.122l0.050-11.33z"></path>
</svg>
