<?xml version="1.0" encoding="utf-8"?>
<!-- Generated by IcoMoon.io -->
<!DOCTYPE svg PUBLIC "-//W3C//DTD SVG 1.1//EN" "http://www.w3.org/Graphics/SVG/1.1/DTD/svg11.dtd">
<svg version="1.1" xmlns="http://www.w3.org/2000/svg" xmlns:xlink="http://www.w3.org/1999/xlink" width="25" height="32" viewBox="0 0 25 32">
<path d="M12.924 29.761c0 0-0.027-2.186 0-2.617-0.135-0.324-0.27-0.755-0.486-1.322-0.729-1.997-1.646-7.231-1.646-12.142s1.025-7.555 2.051-8.364c0.513-0.405 1.538-0.944 4.857-0.998v0c0 0 0 0 0 0 0.027 0 0.054 0 0.108 0 0.027 0 0.054 0 0.108 0 0 0 0 0 0 0v0c2.32 0.027 4.020 0.108 4.722 0.243 0.108-2.752 0.189-4.56 0.189-4.56h-22.826c0 0 0.27 8.364 0.405 10.172s1.214 12.546 1.268 12.816c0.054 0.27 0.324 1.7 0.324 1.7l-0.135 3.858c0 0 4.668 1.754 8.715 1.754 0.108 0-0.054 0 0.027 0 0.108 0 0.216 0 0.297 0 0.755 0 1.268-0.054 2.051-0.162l-0.027-0.378z"></path>
<path d="M24.553 14.327c0-4.371-0.998-6.691-1.511-6.961s-1.295-0.351-4.128-0.405v0c0 0 0 0 0 0-0.027 0-0.054 0-0.081 0s-0.054 0-0.081 0c0 0 0 0 0 0v0c-2.806 0.054-3.616 0.135-4.128 0.405s-1.511 2.59-1.511 6.961c0 4.371 1.025 9.012 1.619 10.793 0.486 1.403 0.594 1.781 1.025 2.293 0 0-0.324 0.108-0.378 0.243s0 2.374 0 2.374l0.162 1.322c0 0 0.027 0.108 0.054 0.135s1.484 0.621 3.103 0.513c0.027 0 0.054 0 0.108 0 0.027 0 0.054 0 0.108 0 1.646 0.135 3.076-0.486 3.103-0.513s0.054-0.135 0.054-0.135l0.162-1.322c0 0 0.027-2.239 0-2.374s-0.378-0.243-0.378-0.243c0.432-0.513 0.54-0.89 1.025-2.293 0.675-1.781 1.7-6.422 1.673-10.793zM21.45 24.067c-0.108 0.162-0.27 0.405-0.405 0.486-0.135 0.054-0.405 0.162-0.432 0.162h-3.427c0 0-0.027 0-0.054 0-0.108 0-0.405-0.027-0.675-0.216-0.297-0.216-0.378-0.459-0.405-0.567-0.081-0.216-1.052-2.617-1.592-5.72-0.27-1.538-0.189-3.535-0.081-4.263 0.108-0.755 0.54-2.266 0.54-2.32 0.027-0.081 0.135-0.432 0.297-0.567s0.432-0.243 0.459-0.243h5.99c0 0 0.216-0.027 0.432 0.135 0.135 0.081 1.214 0.944 1.106 5.639-0.081 3.993-1.727 7.42-1.754 7.474z"></path>
<path d="M21.423 12.277c-0.081-0.054-0.135-0.054-0.162-0.054h-4.992c-0.081 0.027-0.189 0.081-0.243 0.135s-0.108 0.216-0.162 0.324c0 0-0.378 1.295-0.459 1.916-0.081 0.594-0.135 2.212 0.081 3.481 0.459 2.698 1.295 4.749 1.322 4.776v0.027c0 0 0.027 0.162 0.216 0.27 0.189 0.135 0.405 0.108 0.405 0.108h2.806c0.081-0.027 0.243-0.081 0.297-0.108 0.027-0.027 0.135-0.162 0.216-0.27 0-0.027 1.376-2.86 1.457-6.179 0.081-3.13-0.54-4.263-0.782-4.425z"></path>
</svg>
